<?xml version="1.0" encoding="UTF-8"?>
<svg xmlns="http://www.w3.org/2000/svg" version="1.1" viewBox="0 0 512 512">
  <defs>
    <style>
      .cls-1 {
        fill: #010101;
      }

      .cls-2 {
        fill: #fff;
      }
    </style>
  </defs>
  <!-- Generator: Adobe Illustrator 28.7.3, SVG Export Plug-In . SVG Version: 1.2.0 Build 164)  -->
  <g>
    <g id="Calque_1">
      <rect class="cls-1" x="0" y="0" width="512" height="512" rx="60" ry="60"/>
      <g>
        <path class="cls-2" d="M431.5,189.4c-17.1-36.3-58.1-55.1-122.9-56.2-2.1,0-4.3,0-6.5,0-.1,0-.2,0-.3,0h0s-90.3,0-90.3,0c-.1,0-.2,0-.3,0h0s-1.1,0-1.1,0c-1,0-2,0-3,0-67.1.5-109.4,19.4-126.7,56.5-.6,1.4,0,3,1.2,3.8,5.5,3.4,9.3,9.6,9.3,16.6v14.7c0,1.6,1.3,3,3,3h44c1.6.1,2.9-1.1,3-2.7,1.1-29.5,19-34.5,70.2-34.4l43.8-.5s0,0,0,0h1s.4,0,.4,0l44.8.5c51.2-.1,69.1,4.9,70.2,34.4,0,1.6,1.4,2.8,3,2.8h43.5c1.6-.1,3-1.5,3-3.1v-14.7c0-7.1,3.8-13.3,9.6-16.7h0c1.3-.8,1.9-2.4,1.3-3.8Z"/>
        <path class="cls-2" d="M430.4,318.8h0c-5.7-3.4-9.6-9.6-9.6-16.7v-14.7c0-1.6-1.3-3-3-3h-46.5c0,28.2-13.6,35.6-53.1,36.9l-35.8-35.2c-1.2-1.2-2.8-1.8-4.4-1.8h-44.9c-1.6,0-3.2.6-4.4,1.8l-35.8,35.2c-37.4-1.3-51.2-8.4-52.2-34.1,0-1.6-1.4-2.8-3-2.8h-44c-1.6.1-3,1.5-3,3.1v14.7c0,7-3.7,13.1-9.3,16.6-1.3.8-1.9,2.4-1.2,3.8,17.3,37.1,59.6,56,126.7,56.5,1,0,2,0,3,0h1.1s1.6,0,2.4,0h88.4c0,0,.1,0,.2,0,2.2,0,4.4,0,6.5,0,64.9-1.2,105.9-19.9,122.9-56.2.7-1.4,0-3-1.3-3.8Z"/>
      </g>
    </g>
  </g>
</svg>